<svg xmlns="http://www.w3.org/2000/svg" viewBox="67 0 163 21"><style type="text/css">.a{fill:#FFF}</style><path class="a" d="M136.6,13.1h10.2l-5.4-8.7l-9.9,15.7H127l12-18.9c0.5-0.8,1.4-1.2,2.4-1.2c0.9,0,1.8,0.4,2.3,1.2l12.1,18.9 h-4.5l-2.1-3.5h-10.3L136.6,13.1"/><path class="a" d="M183.4,16.5V0.2h-3.8v18c0,0.5,0.2,1,0.6,1.3c0.4,0.4,0.9,0.6,1.4,0.6h17.4l2.3-3.5L183.4,16.5"/><path class="a" d="M120.2,13.6c3.7,0,6.7-3,6.7-6.7c0-3.7-3-6.7-6.7-6.7h-16.7v19.9h3.8V3.7h12.6c1.8,0,3.2,1.4,3.2,3.2 c0,1.8-1.4,3.2-3.2,3.2l-10.8,0l11.4,10h5.5l-7.7-6.4L120.2,13.6"/><path class="a" d="M79.9,20.1c-5.5,0-9.9-4.4-9.9-9.9c0-5.5,4.4-9.9,9.9-9.9h11.5c5.5,0,9.9,4.4,9.9,9.9c0,5.5-4.4,9.9-9.9,9.9H79.9 M91.2,16.6c3.6,0,6.4-2.9,6.4-6.4c0-3.6-2.9-6.4-6.4-6.4h-11c-3.5,0-6.4,2.9-6.4,6.4s2.9,6.4,6.4,6.4H91.2"/><path class="a" d="M163.8,20.1c-5.5,0-10-4.4-10-9.9c0-5.5,4.5-9.9,10-9.9h13.7l-2.3,3.5H164c-3.6,0-6.5,2.9-6.5,6.4c0,3.5,2.9,6.4,6.5,6.4h13.8l-2.2,3.5H163.8"/><path class="a" d="M210.5,16.6c-2.9,0-5.4-2-6.2-4.7h16.4l2.2-3.5h-18.6c0.8-2.7,3.3-4.7,6.2-4.7h11.2l2.2-3.5h-13.7c-5.5,0-9.9,4.4-9.9,9.9c0,5.5,4.4,9.9,9.9,9.9H222l2.2-3.5H210.5"/><path class="a" d="M226,2.3c0-1,0.8-1.8,1.8-1.8c1,0,1.8,0.8,1.8,1.8c0,1-0.8,1.8-1.8,1.8C226.8,4.1,226,3.3,226,2.3 M227.8,4.6c1.2,0,2.2-1,2.2-2.2c0-1.2-1-2.2-2.2-2.2c-1.2,0-2.2,1-2.2,2.2S226.5,4.6,227.8,4.6 M227.6,1c0.3,0,0.5,0,0.6,0.1c0.5,0.1,0.5,0.6,0.5,0.7c0,0,0,0.1,0,0.2c0,0.1-0.1,0.3-0.3,0.4c0,0,0,0-0.1,0.1l0.6,1h-0.6l-0.5-1h-0.3v1H227V1H227.6 M227.7,2.1c0.2,0,0.3,0,0.4-0.2c0.1,0,0.1-0.1,0.1-0.2c0-0.1-0.1-0.2-0.2-0.3c-0.1-0.1-0.2-0.1-0.5-0.1h-0.1v0.7H227.7"/></svg>