<svg xmlns:x="http://ns.adobe.com/Extensibility/1.0/" xmlns:i="http://ns.adobe.com/AdobeIllustrator/10.0/" xmlns:graph="http://ns.adobe.com/Graphs/1.0/" xmlns="http://www.w3.org/2000/svg" xmlns:xlink="http://www.w3.org/1999/xlink" version="1.1" id="STREAMING" x="0px" y="0px" width="50" height="30" viewBox="-200 250 190 114" style="enable-background:new -200 250 190 114;" xml:space="preserve">&#xa;<style type="text/css">&#xa;	.st0{fill:#5F5F5F;}&#xa;</style>&#xa;<g>&#xa;		<g>&#xa;			<g>&#xa;				<path class="st0" d="M-29,348.4c0,8.5-2.5,15.6-5.2,15.6c-0.1,0,0,0,0,0l0,0h-145l0,0c-2.5-0.7-4.4-7.5-4.4-15.6      c0-8.1,2-14.8,4.4-15.5l0,0h145l0.2,0c0.2,0-0.2,0-0.1,0C-31.4,333-29,339.9-29,348.4z M-177.6,335.9c-1.7,0-3.1,5.6-3.1,12.6      s1.4,12.6,3.1,12.6s3.1-5.6,3.1-12.6S-175.9,335.9-177.6,335.9z M-75.7,341.7l-6.7,2.9v9.5l6.7,2.9l6.7-2.9v-9.5L-75.7,341.7z       M-129,340.9c0,0.1,0,0.4-0.1,0.7c-0.1,0.5-0.4,0.9-0.6,1.2c-0.4,0.4-1,0.7-1.6,0.9c-0.4,0.1-1.1,0.2-2.2,0.2v2.3h4v11.6h3.4      v-16.9H-129z M-97.5,343c-0.9-1.5-2.4-2.3-4.5-2.3c-2.1,0-3.7,0.8-4.5,2.3c-0.9,1.5-1.3,3.7-1.3,6.4s0.4,4.9,1.3,6.4      c0.9,1.5,2.4,2.3,4.5,2.3c2.1,0,3.7-0.8,4.5-2.3c0.9-1.5,1.3-3.6,1.3-6.4S-96.7,344.5-97.5,343z M-44.4,343      c-0.9-1.5-2.4-2.3-4.5-2.3s-3.7,0.8-4.5,2.3c-0.9,1.5-1.3,3.7-1.3,6.4s0.4,4.9,1.3,6.4c0.9,1.5,2.4,2.3,4.5,2.3s3.7-0.8,4.5-2.3      c0.9-1.5,1.3-3.6,1.3-6.4S-43.5,344.5-44.4,343z M-151.6,340.9c0,0.1,0,0.4-0.1,0.7c-0.1,0.5-0.4,0.9-0.6,1.2      c-0.4,0.4-1,0.7-1.6,0.9c-0.4,0.1-1.1,0.2-2.2,0.2v2.3h4v11.6h3.4v-16.9H-151.6z"/>&#xa;				<path class="st0" d="M-104,353.9c0.3,1,1,1.5,2,1.5s1.6-0.5,1.9-1.5s0.5-2.5,0.5-4.4c0-2-0.2-3.5-0.5-4.5s-1-1.5-1.9-1.5      s-1.6,0.5-2,1.5s-0.5,2.5-0.5,4.5C-104.5,351.4-104.3,352.9-104,353.9z"/>&#xa;				<path class="st0" d="M-50.9,353.9c0.3,1,1,1.5,2,1.5c1,0,1.6-0.5,1.9-1.5c0.3-1,0.5-2.5,0.5-4.4c0-2-0.2-3.5-0.5-4.5      c-0.3-1-1-1.5-1.9-1.5c-1,0-1.6,0.5-2,1.5s-0.5,2.5-0.5,4.5C-51.3,351.4-51.2,352.9-50.9,353.9z"/>&#xa;			</g>&#xa;			<g>&#xa;				<path class="st0" d="M-29,307.1c0,8.5-2.5,15.6-5.2,15.6c-0.1,0,0,0,0,0l0,0h-145l0,0c-2.5-0.7-4.4-7.5-4.4-15.6      s2-14.8,4.4-15.5l0,0h145l0.2,0c0.2,0-0.2,0-0.1,0C-31.4,291.6-29,298.6-29,307.1z M-177.6,294.5c-1.7,0-3.1,5.6-3.1,12.6      s1.4,12.6,3.1,12.6s3.1-5.6,3.1-12.6S-175.9,294.5-177.6,294.5z M-111.6,312.7l6.7,2.9l6.7-2.9v-9.5l-6.7-2.9l-6.7,2.9V312.7z       M-159.1,312.7l6.7,2.9l6.7-2.9v-9.5l-6.7-2.9l-6.7,2.9V312.7z M-73.4,301.6c-0.9-1.5-2.4-2.3-4.5-2.3s-3.7,0.8-4.5,2.3      c-0.9,1.5-1.3,3.7-1.3,6.4s0.4,4.9,1.3,6.4c0.9,1.5,2.4,2.3,4.5,2.3s3.7-0.8,4.5-2.3c0.9-1.5,1.3-3.6,1.3-6.4      S-72.5,303.1-73.4,301.6z M-50,299.4c0,0.1,0,0.4-0.1,0.7c-0.1,0.5-0.4,0.9-0.6,1.2c-0.4,0.4-1,0.7-1.6,0.9      c-0.4,0.1-1.1,0.2-2.2,0.2v2.3h4v11.6h3.4v-16.9H-50z M-129,299.4c0,0.1,0,0.4-0.1,0.7c-0.1,0.5-0.4,0.9-0.6,1.2      c-0.4,0.4-1,0.7-1.6,0.9c-0.4,0.1-1.1,0.2-2.2,0.2v2.3h4v11.6h3.4v-16.9H-129z"/>&#xa;				<path class="st0" d="M-79.9,312.4c0.3,1,1,1.5,2,1.5s1.6-0.5,1.9-1.5s0.5-2.5,0.5-4.4c0-2-0.2-3.5-0.5-4.5s-1-1.5-1.9-1.5      s-1.6,0.5-2,1.5s-0.5,2.5-0.5,4.5C-80.3,309.9-80.2,311.4-79.9,312.4z"/>&#xa;			</g>&#xa;			<g>&#xa;				<g>&#xa;					<polygon class="st0" points="-23,339.8 -23,354.1 -10.3,346.9      "/>&#xa;				</g>&#xa;			</g>&#xa;			<g>&#xa;				<g>&#xa;					<polygon class="st0" points="-200,339.8 -200,354.1 -187.3,346.9      "/>&#xa;				</g>&#xa;			</g>&#xa;			<g>&#xa;				<g>&#xa;					<polygon class="st0" points="-23,299.4 -23,313.7 -10.3,306.5      "/>&#xa;				</g>&#xa;			</g>&#xa;			<g>&#xa;				<g>&#xa;					<polygon class="st0" points="-200,299.4 -200,313.7 -187.3,306.5      "/>&#xa;				</g>&#xa;			</g>&#xa;			<g>&#xa;				<g>&#xa;					<polygon class="st0" points="-23,258.9 -23,273.2 -10.3,266.1      "/>&#xa;				</g>&#xa;			</g>&#xa;			<g>&#xa;				<g>&#xa;					<polygon class="st0" points="-200,258.9 -200,273.2 -187.3,266.1      "/>&#xa;				</g>&#xa;			</g>&#xa;			<g>&#xa;				<path class="st0" d="M-156.7,271.3c0.3,1,1,1.5,2,1.5c1,0,1.6-0.5,1.9-1.5s0.5-2.5,0.5-4.4c0-2-0.2-3.5-0.5-4.5s-1-1.5-1.9-1.5      c-1,0-1.6,0.5-2,1.5c-0.3,1-0.5,2.5-0.5,4.5C-157.1,268.8-157,270.2-156.7,271.3z"/>&#xa;				<path class="st0" d="M-29,265.8c0,8.5-2.5,15.6-5.2,15.6c-0.1,0,0,0,0,0l0,0h-145l0,0c-2.5-0.7-4.4-7.5-4.4-15.6      c0-8.1,2-14.8,4.4-15.5l0,0h145l0.2,0c0.2,0-0.2,0-0.1,0C-31.4,250.3-29,257.3-29,265.8z M-51.6,258.7l-6.7,2.9v9.5l6.7,2.9      l6.7-2.9v-9.5L-51.6,258.7z M-127.8,259l-6.7,2.9v9.5l6.7,2.9l6.7-2.9v-9.5L-127.8,259z M-150.2,260.4c-0.9-1.5-2.4-2.3-4.5-2.3      s-3.7,0.8-4.5,2.3c-0.9,1.5-1.3,3.7-1.3,6.4s0.4,4.9,1.3,6.4c0.9,1.5,2.4,2.3,4.5,2.3s3.7-0.8,4.5-2.3c0.9-1.5,1.3-3.6,1.3-6.4      S-149.3,261.9-150.2,260.4z M-100.4,258.2c0,0.1,0,0.4-0.1,0.7c-0.1,0.5-0.4,0.9-0.6,1.2c-0.4,0.4-1,0.7-1.6,0.9      c-0.4,0.1-1.1,0.2-2.2,0.2v2.3h4v11.6h3.4v-16.9H-100.4z M-78.5,258.2c0,0.1,0,0.4-0.1,0.7c-0.1,0.5-0.4,0.9-0.6,1.2      c-0.4,0.4-1,0.7-1.6,0.9c-0.4,0.1-1.1,0.2-2.2,0.2v2.3h4v11.6h3.4v-16.9H-78.5z M-177.6,253.2c-1.7,0-3.1,5.6-3.1,12.6      c0,7,1.4,12.6,3.1,12.6s3.1-5.6,3.1-12.6C-174.5,258.9-175.9,253.2-177.6,253.2z"/>&#xa;			</g>&#xa;		</g>&#xa;	</g>&#xa;</svg>