<svg xmlns="http://www.w3.org/2000/svg" width="241" height="219.586" viewBox="0 0 241 219.586">
  <g id="cat-litter" transform="translate(0 -0.001)">
    <path id="Path_28" data-name="Path 28" d="M289.943,164.214a3.53,3.53,0,1,1-3.53-3.53A3.529,3.529,0,0,1,289.943,164.214Zm0,0" transform="translate(-149.729 -85.049)"/>
    <path id="Path_29" data-name="Path 29" d="M338.713,202.983a3.53,3.53,0,1,1-3.53-3.53A3.53,3.53,0,0,1,338.713,202.983Zm0,0" transform="translate(-175.543 -105.569)"/>
    <path id="Path_30" data-name="Path 30" d="M301.943,199.065a3.53,3.53,0,1,1-3.53-3.53A3.53,3.53,0,0,1,301.943,199.065Zm0,0" transform="translate(-156.081 -103.495)"/>
    <path id="Path_31" data-name="Path 31" d="M233.653,126.256H218.5a23.113,23.113,0,0,0-22.973-16.2,3.544,3.544,0,0,1-2.993-1.375A209.76,209.76,0,0,0,174.872,88.3a3.53,3.53,0,1,0-5.045,4.939,202.426,202.426,0,0,1,17.056,19.674,10.612,10.612,0,0,0,8.914,4.2,16.07,16.07,0,0,1,15.138,9.142H177.12a17.808,17.808,0,0,0-17.433,13.869l-2.7,11.7a2.007,2.007,0,0,1-1.966,1.565H85.977a2.009,2.009,0,0,1-1.967-1.565l-2.7-11.7A17.808,17.808,0,0,0,63.88,126.256H29.345a28.712,28.712,0,0,1,36.472-20.422,10.441,10.441,0,0,0,11.012-3.089C95.742,81.052,118.571,63.4,127.721,63.4c5.7,0,17.324,7.134,30.331,18.622a3.531,3.531,0,0,0,4.674-5.294c-10.534-9.3-25.157-20.389-35-20.389-2.992,0-6.516,1.061-10.352,2.89l-.061-.281a14.714,14.714,0,0,0-14.288-11.5H94.78l2.069-31.094a15.347,15.347,0,1,0-30.627,0L68.3,47.455H60.051a14.729,14.729,0,0,0-14.288,11.5L42.374,74.387a3.53,3.53,0,0,0,6.9,1.513L52.66,60.468a7.619,7.619,0,0,1,7.392-5.952H72.069a3.53,3.53,0,0,0,3.523-3.764l-2.326-34.86a8.287,8.287,0,1,1,16.537,0l-2.32,34.861a3.531,3.531,0,0,0,3.523,3.764h12.012a7.612,7.612,0,0,1,7.392,5.95l.517,2.35c-2.764,1.73-5.615,3.738-8.491,5.935l-.063-.287a5.608,5.608,0,0,0-5.444-4.38H66.145a5.608,5.608,0,0,0-5.444,4.38L54.311,97.572a35.674,35.674,0,0,0-10.317,2.379l1.747-7.963a3.53,3.53,0,1,0-6.9-1.513l-3.087,14.071a35.571,35.571,0,0,0-13.639,21.709H7.347A7.355,7.355,0,0,0,0,133.6v7.323a7.355,7.355,0,0,0,7.347,7.347h.791l13.04,62.7a10.867,10.867,0,0,0,10.6,8.618H209.226a10.866,10.866,0,0,0,10.6-8.618l13.04-62.7h.794A7.354,7.354,0,0,0,241,140.927V133.6A7.355,7.355,0,0,0,233.653,126.256ZM67.34,71.145H95.733l.559,2.55A238.339,238.339,0,0,0,71.51,98.1a3.377,3.377,0,0,1-3.565,1,35.528,35.528,0,0,0-6.435-1.386Zm166.6,69.782a.286.286,0,0,1-.285.287H183.311a10.667,10.667,0,0,0-10.44,8.309l-2.841,12.314a8.352,8.352,0,0,1-8.177,6.507H79.146a8.355,8.355,0,0,1-8.178-6.507l-2.839-12.314a10.668,10.668,0,0,0-10.444-8.309H43.612a3.53,3.53,0,0,0,0,7.061H57.685a3.639,3.639,0,0,1,3.563,2.835l2.839,12.314A15.383,15.383,0,0,0,79.146,175.4h82.708a15.381,15.381,0,0,0,15.057-11.981l2.841-12.314a3.636,3.636,0,0,1,3.56-2.835h42.338l-12.74,61.258a3.779,3.779,0,0,1-3.685,3H31.774a3.78,3.78,0,0,1-3.685-3l-12.74-61.256H27.137a3.53,3.53,0,0,0,0-7.061H7.347a.287.287,0,0,1-.287-.287V133.6a.287.287,0,0,1,.287-.287H63.88a10.78,10.78,0,0,1,10.552,8.4l2.7,11.7a9.037,9.037,0,0,0,8.846,7.038h69.048a9.035,9.035,0,0,0,8.846-7.038l2.7-11.7a10.78,10.78,0,0,1,10.552-8.4h56.534a.286.286,0,0,1,.285.287v7.323Zm0,0" transform="translate(0 0)"/>
  </g>
</svg>
