<svg xmlns="http://www.w3.org/2000/svg" width="139.875" height="219.586" viewBox="0 0 139.875 219.586">
  <g id="cat-food" transform="translate(-0.5)">
    <path id="Path_44" data-name="Path 44" d="M126.192,28.554v-11.4A17.175,17.175,0,0,0,109.036,0H66.149a4.289,4.289,0,0,0,0,8.578h42.888a8.588,8.588,0,0,1,8.578,8.578v8.578H23.261V17.155a8.588,8.588,0,0,1,8.578-8.578,4.289,4.289,0,1,0,0-8.578A17.175,17.175,0,0,0,14.683,17.155v11.4A69.03,69.03,0,0,0,.5,70.656V206.589a13.011,13.011,0,0,0,13,13H127.378a13.011,13.011,0,0,0,13-13V70.656A69.026,69.026,0,0,0,126.192,28.554ZM9.078,74.945H131.8V176.7H9.078Zm110.7-40.635a60.453,60.453,0,0,1,11.866,32.057H9.227A60.465,60.465,0,0,1,21.091,34.31Zm7.6,176.7H13.5a4.423,4.423,0,0,1-4.418-4.419V185.274H131.8v21.315A4.424,4.424,0,0,1,127.378,211.008Zm0,0"/>
    <path id="Path_45" data-name="Path 45" d="M118.2,271.172a34.108,34.108,0,0,0-34.069,34.071c0,5.756,1.449,9.933,4.433,12.771,3.557,3.384,8.442,4.146,14.145,4.146,2.243,0,4.612-.117,7.077-.241,2.714-.134,5.522-.275,8.415-.275s5.7.141,8.415.275c8.728.434,16.266.811,21.221-3.905,2.984-2.838,4.433-7.014,4.433-12.771A34.109,34.109,0,0,0,118.2,271.172ZM141.926,311.8c-2.29,2.18-8.407,1.875-14.883,1.553-2.818-.141-5.733-.286-8.841-.286s-6.023.146-8.842.286c-6.475.322-12.592.627-14.882-1.553-1.173-1.117-1.767-3.322-1.767-6.559a25.491,25.491,0,1,1,50.983,0C143.693,308.478,143.1,310.684,141.926,311.8Zm0,0" transform="translate(-47.764 -154.872)"/>
    <path id="Path_46" data-name="Path 46" d="M145.593,225.539c7.443,0,13.5-6.472,13.5-14.428s-6.056-14.428-13.5-14.428-13.5,6.472-13.5,14.428S138.15,225.539,145.593,225.539Zm0-20.278c2.669,0,4.922,2.679,4.922,5.85s-2.253,5.85-4.922,5.85-4.922-2.679-4.922-5.85S142.925,205.261,145.593,205.261Zm0,0" transform="translate(-75.156 -112.33)"/>
    <path id="Path_47" data-name="Path 47" d="M74.522,249.69a12.983,12.983,0,0,0,6.2-8.631,15.163,15.163,0,0,0-10.054-17.413,12.916,12.916,0,0,0-16.78,9.687,14.892,14.892,0,0,0,1.726,10.613,14.606,14.606,0,0,0,12.5,7.45A12.741,12.741,0,0,0,74.522,249.69ZM63.046,239.657a6.329,6.329,0,0,1-.771-4.5,4.5,4.5,0,0,1,2.109-3.024,4.253,4.253,0,0,1,2.138-.561,5.053,5.053,0,0,1,1.535.246,6.59,6.59,0,0,1,4.285,7.423,4.5,4.5,0,0,1-2.109,3.024C67.883,243.619,64.658,242.451,63.046,239.657Zm0,0" transform="translate(-30.306 -127.351)"/>
    <path id="Path_48" data-name="Path 48" d="M236.642,233.334a12.913,12.913,0,0,0-16.778-9.688,15.163,15.163,0,0,0-10.054,17.413,12.99,12.99,0,0,0,6.2,8.633,12.756,12.756,0,0,0,6.408,1.717,13.68,13.68,0,0,0,4.168-.662,15.159,15.159,0,0,0,10.052-17.413Zm-9.152,6.323a6.332,6.332,0,0,1-3.513,2.92,4.346,4.346,0,0,1-5.783-3.339,6.588,6.588,0,0,1,4.284-7.422,5.024,5.024,0,0,1,1.536-.248,4.253,4.253,0,0,1,2.138.561,4.518,4.518,0,0,1,2.109,3.026A6.335,6.335,0,0,1,227.49,239.656Zm0,0" transform="translate(-119.354 -127.35)"/>
    <path id="Path_49" data-name="Path 49" d="M107.861,8.578a4.289,4.289,0,0,0,0-8.578h0a4.289,4.289,0,1,0,0,8.578Zm0,0" transform="translate(-58.866)"/>
    <path id="Path_50" data-name="Path 50" d="M170.63,452h0a4.289,4.289,0,1,0,4.292,4.289A4.287,4.287,0,0,0,170.627,452Zm0,0" transform="translate(-94.715 -258.147)"/>
    <path id="Path_51" data-name="Path 51" d="M236.36,452H210.629a4.289,4.289,0,0,0,0,8.578H236.36a4.289,4.289,0,0,0,0-8.578Zm0,0" transform="translate(-117.56 -258.147)"/>
  </g>
</svg>
