<?xml version="1.0" standalone="no"?>
<!DOCTYPE svg PUBLIC "-//W3C//DTD SVG 20010904//EN"
 "http://www.w3.org/TR/2001/REC-SVG-20010904/DTD/svg10.dtd">
<svg version="1.0" xmlns="http://www.w3.org/2000/svg"
 width="700.000000pt" height="700.000000pt" viewBox="0 0 700.000000 700.000000"
 preserveAspectRatio="xMidYMid meet">
<metadata>
Created by potrace 1.14, written by Peter Selinger 2001-2017
</metadata>
<g transform="translate(0.000000,700.000000) scale(0.100000,-0.100000)"
fill="#000000" stroke="none">
<path d="M6167 6779 c-57 -13 -93 -35 -161 -97 -34 -32 -109 -100 -166 -154
-58 -53 -118 -108 -135 -123 -16 -15 -57 -53 -90 -84 -59 -55 -262 -242 -320
-294 -34 -31 -30 -30 -110 -17 -207 35 -515 33 -752 -5 -45 -7 -228 -51 -284
-68 l-47 -14 -58 49 c-33 28 -70 60 -84 72 -42 35 -167 137 -290 235 -63 50
-122 97 -130 104 -316 254 -376 292 -465 296 -91 3 -159 -22 -219 -82 -63 -64
-84 -120 -80 -221 3 -94 15 -351 29 -601 2 -44 7 -150 10 -235 4 -85 8 -166
11 -180 5 -30 5 -419 0 -470 -7 -71 -18 -165 -21 -180 -1 -8 -6 -35 -10 -60
-4 -25 -22 -119 -40 -210 -18 -91 -36 -185 -40 -210 -14 -101 -16 -116 -20
-140 -3 -14 -7 -57 -10 -95 -3 -39 -8 -83 -11 -100 -4 -24 -10 -199 -14 -401
0 -18 -8 -23 -47 -29 -542 -79 -1039 -333 -1442 -736 -412 -411 -713 -978
-886 -1669 -19 -74 -36 -146 -39 -160 -3 -14 -8 -36 -11 -50 -3 -14 -15 -75
-27 -137 -18 -94 -19 -119 -10 -151 37 -123 175 -168 277 -90 50 38 61 66 95
243 24 125 74 336 97 410 97 320 204 579 332 810 45 79 190 292 257 375 67 83
218 240 299 311 336 293 822 502 1221 525 135 7 187 29 222 92 20 35 23 55 22
115 -12 445 6 662 90 1067 21 102 41 206 44 233 3 26 8 66 11 90 18 144 22
237 19 442 -2 127 -6 255 -8 285 -2 30 -7 123 -11 205 -4 83 -9 177 -10 209
-2 33 -7 127 -10 210 -4 83 -9 154 -11 158 -18 29 53 -22 226 -163 19 -15 89
-72 156 -126 208 -169 337 -276 379 -316 90 -85 161 -98 283 -54 193 70 434
112 647 111 72 -1 237 -12 275 -19 8 -1 31 -5 50 -8 19 -4 65 -12 101 -20 114
-24 143 -11 300 137 42 39 96 89 120 111 24 22 76 69 114 105 39 36 115 106
170 156 55 51 122 112 150 137 32 30 52 42 57 34 3 -6 5 -14 2 -19 -3 -4 -7
-274 -9 -600 -5 -643 -4 -660 51 -838 14 -47 52 -139 84 -205 71 -148 87 -193
103 -298 27 -167 4 -344 -68 -550 -83 -234 -106 -342 -109 -505 -3 -127 10
-230 47 -377 14 -55 33 -136 42 -180 9 -44 18 -87 20 -95 2 -13 8 -53 30 -205
33 -230 24 -626 -20 -875 -61 -344 -175 -648 -354 -950 -49 -83 -56 -101 -55
-146 1 -148 190 -218 297 -110 65 66 221 361 301 567 37 98 56 157 106 324 39
128 81 392 96 600 4 62 4 384 0 440 -3 28 -7 86 -11 130 -3 44 -8 87 -10 95
-3 8 -7 35 -10 60 -3 25 -10 71 -16 102 -5 32 -12 70 -15 85 -3 16 -25 113
-50 216 -74 306 -67 406 50 732 32 90 63 212 81 320 11 69 13 252 4 330 -16
127 -55 254 -114 375 -128 259 -130 271 -129 740 1 206 3 535 5 731 l4 355
-24 48 c-58 113 -195 174 -324 145z"/>
<path d="M1746 6242 c-2 -4 4 -8 14 -8 10 0 16 4 14 8 -3 4 -9 8 -14 8 -5 0
-11 -4 -14 -8z"/>
<path d="M1870 6240 c0 -5 5 -10 11 -10 5 0 7 5 4 10 -3 6 -8 10 -11 10 -2 0
-4 -4 -4 -10z"/>
<path d="M1075 5920 c3 -5 8 -10 11 -10 2 0 4 5 4 10 0 6 -5 10 -11 10 -5 0
-7 -4 -4 -10z"/>
<path d="M1136 5919 c5 -9 -102 -24 -152 -22 -30 1 -31 0 -29 -41 0 -23 5 -48
10 -55 6 -10 4 -12 -6 -6 -12 7 -12 6 -1 -7 7 -9 12 -31 12 -49 -1 -19 0 -43
3 -54 2 -11 -5 -26 -16 -36 -16 -13 -17 -16 -4 -16 9 0 14 4 11 9 -3 4 0 8 6
8 14 0 10 -49 -5 -69 -7 -11 -7 -13 3 -7 18 11 11 -35 -8 -60 -14 -18 -14 -18
3 -5 17 13 18 12 15 -11 -2 -14 -10 -34 -18 -44 -14 -18 -14 -18 3 -5 17 13
18 12 15 -10 -2 -13 -7 -30 -12 -38 -6 -10 -5 -12 3 -7 14 9 11 -30 -3 -53 -6
-10 -5 -12 3 -7 14 9 11 -30 -3 -53 -6 -9 -5 -12 1 -8 6 4 10 -13 10 -43 1
-28 -3 -48 -7 -45 -5 3 -12 0 -16 -6 -4 -7 -3 -9 4 -5 16 10 22 -7 28 -76 3
-34 8 -66 11 -71 4 -6 1 -7 -6 -2 -10 5 -10 3 0 -13 14 -22 5 -57 -12 -46 -8
4 -9 3 -5 -5 4 -6 12 -9 17 -5 7 4 8 -17 5 -57 -3 -34 -11 -66 -18 -71 -8 -5
-9 -8 -2 -8 10 0 10 -31 0 -85 -3 -11 -5 -37 -5 -58 -1 -25 -5 -36 -12 -32 -6
4 -5 -2 2 -13 11 -18 10 -24 -6 -44 -12 -13 -13 -17 -4 -10 14 10 18 6 29 -28
7 -22 17 -40 22 -40 4 0 8 -5 8 -11 0 -5 -4 -8 -8 -5 -4 2 -8 -6 -8 -18 0 -12
6 -23 13 -23 9 0 10 4 2 13 -7 8 -6 14 2 19 6 4 14 3 18 -2 17 -28 75 -45 128
-38 29 3 51 10 48 15 -3 5 0 12 8 17 20 13 40 64 42 108 1 23 4 46 8 52 4 6 3
13 -2 15 -5 1 -12 17 -14 33 -3 17 -13 56 -21 89 -12 42 -13 62 -6 71 8 10 8
15 -1 21 -8 4 -9 3 -5 -4 4 -7 3 -12 -2 -12 -5 0 -12 9 -15 20 -3 11 -1 18 4
14 5 -3 9 0 9 5 0 6 -4 11 -10 11 -5 0 -10 7 -10 16 0 13 3 14 13 5 8 -6 17
-8 20 -4 4 3 7 2 7 -3 0 -13 147 -9 183 5 15 6 31 10 35 9 11 -2 62 23 112 56
25 16 42 26 38 21 -4 -4 3 -16 15 -26 12 -10 18 -19 12 -19 -5 0 15 -13 47
-29 48 -24 65 -27 120 -24 34 2 71 4 81 4 9 0 15 4 12 9 -3 5 5 12 17 16 13 4
31 16 42 28 10 12 22 20 27 19 5 -2 11 8 15 22 3 14 9 23 13 20 11 -6 6 26 -9
57 -17 35 -39 39 -90 16 -35 -16 -45 -18 -55 -6 -17 17 -26 108 -11 108 6 0 5
4 -2 9 -17 11 -17 21 0 32 7 5 8 9 3 9 -14 0 -14 143 -1 152 7 5 7 8 1 8 -12
0 -14 318 -3 336 4 6 4 14 0 18 -11 12 -10 100 2 115 8 11 8 13 -1 7 -9 -5
-13 -1 -13 12 0 20 -23 36 -34 24 -4 -3 -17 -7 -29 -9 -12 -1 -35 -5 -50 -8
-19 -3 -26 -1 -21 6 3 6 -4 5 -17 -4 -13 -8 -43 -14 -66 -13 -32 1 -39 -2 -34
-13 5 -7 5 -30 1 -52 -5 -25 -3 -40 4 -42 7 -3 3 -12 -9 -22 -11 -9 -15 -14
-8 -11 14 8 23 -120 9 -135 -6 -6 -6 -9 0 -9 5 0 9 -34 9 -75 0 -43 -4 -75
-10 -75 -5 0 -3 -5 5 -10 10 -6 11 -10 3 -10 -9 0 -10 -7 -3 -24 5 -15 5 -27
-3 -35 -6 -6 -7 -11 -1 -11 14 0 9 -101 -6 -110 -10 -6 -10 -9 2 -11 11 -3 13
-11 6 -34 -10 -36 -90 -100 -113 -91 -9 3 -14 2 -11 -3 7 -10 -36 -28 -81 -35
-19 -2 -40 2 -54 12 -17 12 -20 12 -14 1 7 -11 5 -11 -11 1 -25 20 -34 32 -28
42 3 4 0 8 -6 8 -6 0 -9 4 -5 9 3 5 1 12 -4 16 -6 3 -11 121 -11 293 -2 318
-4 369 -12 377 -3 3 -4 19 -2 35 4 30 -8 37 -55 31 -7 -2 -11 2 -7 7 3 5 -1 9
-9 9 -8 0 -12 -4 -9 -8z"/>
<path d="M1870 5880 c0 -5 5 -10 11 -10 5 0 7 5 4 10 -3 6 -8 10 -11 10 -2 0
-4 -4 -4 -10z"/>
<path d="M1854 5836 c1 -8 5 -18 8 -22 4 -3 5 1 4 10 -1 8 -5 18 -8 22 -4 3
-5 -1 -4 -10z"/>
<path d="M1475 5811 c-3 -5 -2 -12 3 -15 5 -3 9 1 9 9 0 17 -3 19 -12 6z"/>
<path d="M2355 5809 c-4 -6 -5 -12 -2 -15 2 -3 7 2 10 11 7 17 1 20 -8 4z"/>
<path d="M467 5799 c7 -7 15 -10 18 -7 3 3 -2 9 -12 12 -14 6 -15 5 -6 -5z"/>
<path d="M1850 5780 c0 -5 5 -10 11 -10 5 0 7 5 4 10 -3 6 -8 10 -11 10 -2 0
-4 -4 -4 -10z"/>
<path d="M1315 5749 c-4 -6 -5 -12 -2 -15 2 -3 7 2 10 11 7 17 1 20 -8 4z"/>
<path d="M1850 5740 c0 -5 5 -10 11 -10 5 0 7 5 4 10 -3 6 -8 10 -11 10 -2 0
-4 -4 -4 -10z"/>
<path d="M1513 5725 c0 -8 4 -12 9 -9 5 3 6 10 3 15 -9 13 -12 11 -12 -6z"/>
<path d="M1456 5718 c3 -5 10 -6 15 -3 13 9 11 12 -6 12 -8 0 -12 -4 -9 -9z"/>
<path d="M1286 5702 c-3 -5 1 -9 9 -9 8 0 12 4 9 9 -3 4 -7 8 -9 8 -2 0 -6 -4
-9 -8z"/>
<path d="M1830 5699 c0 -5 5 -7 10 -4 6 3 10 8 10 11 0 2 -4 4 -10 4 -5 0 -10
-5 -10 -11z"/>
<path d="M1955 5680 c-3 -5 -1 -10 4 -10 6 0 11 5 11 10 0 6 -2 10 -4 10 -3 0
-8 -4 -11 -10z"/>
<path d="M1495 5631 c-3 -5 -2 -12 3 -15 5 -3 9 1 9 9 0 17 -3 19 -12 6z"/>
<path d="M886 5618 c3 -5 10 -6 15 -3 13 9 11 12 -6 12 -8 0 -12 -4 -9 -9z"/>
<path d="M1830 5580 c0 -5 9 -8 20 -7 21 1 18 10 -5 13 -8 1 -15 -2 -15 -6z"/>
<path d="M1886 5578 c3 -5 10 -6 15 -3 13 9 11 12 -6 12 -8 0 -12 -4 -9 -9z"/>
<path d="M2075 5560 c3 -5 8 -10 11 -10 2 0 4 5 4 10 0 6 -5 10 -11 10 -5 0
-7 -4 -4 -10z"/>
<path d="M897 5535 c-4 -8 -3 -16 1 -19 4 -3 9 4 9 15 2 23 -3 25 -10 4z"/>
<path d="M1490 5539 c0 -5 5 -7 10 -4 6 3 10 8 10 11 0 2 -4 4 -10 4 -5 0 -10
-5 -10 -11z"/>
<path d="M1830 5539 c0 -5 5 -7 10 -4 6 3 10 8 10 11 0 2 -4 4 -10 4 -5 0 -10
-5 -10 -11z"/>
<path d="M1293 5489 c-2 -23 3 -25 10 -4 4 8 3 16 -1 19 -4 3 -9 -4 -9 -15z"/>
<path d="M916 5478 c3 -5 10 -6 15 -3 13 9 11 12 -6 12 -8 0 -12 -4 -9 -9z"/>
<path d="M1390 5481 c0 -6 4 -13 10 -16 6 -3 7 1 4 9 -7 18 -14 21 -14 7z"/>
<path d="M1496 5458 c3 -5 10 -6 15 -3 13 9 11 12 -6 12 -8 0 -12 -4 -9 -9z"/>
<path d="M1535 5449 c-4 -6 -5 -12 -2 -15 2 -3 7 2 10 11 7 17 1 20 -8 4z"/>
<path d="M826 5442 c-3 -5 1 -9 9 -9 8 0 12 4 9 9 -3 4 -7 8 -9 8 -2 0 -6 -4
-9 -8z"/>
<path d="M894 5422 c4 -3 14 -7 22 -8 9 -1 13 0 10 4 -4 3 -14 7 -22 8 -9 1
-13 0 -10 -4z"/>
<path d="M1830 5379 c0 -5 5 -7 10 -4 6 3 10 8 10 11 0 2 -4 4 -10 4 -5 0 -10
-5 -10 -11z"/>
<path d="M895 5339 c-3 -4 2 -6 10 -5 21 3 28 13 10 13 -9 0 -18 -4 -20 -8z"/>
<path d="M1286 5342 c-3 -5 1 -9 9 -9 8 0 12 4 9 9 -3 4 -7 8 -9 8 -2 0 -6 -4
-9 -8z"/>
<path d="M886 5298 c3 -5 10 -6 15 -3 13 9 11 12 -6 12 -8 0 -12 -4 -9 -9z"/>
<path d="M1294 5256 c1 -8 5 -18 8 -22 4 -3 5 1 4 10 -1 8 -5 18 -8 22 -4 3
-5 -1 -4 -10z"/>
<path d="M1509 5243 c-13 -16 -12 -17 4 -4 9 7 17 15 17 17 0 8 -8 3 -21 -13z"/>
<path d="M907 5239 c7 -7 15 -10 18 -7 3 3 -2 9 -12 12 -14 6 -15 5 -6 -5z"/>
<path d="M1875 5220 c3 -5 8 -10 11 -10 2 0 4 5 4 10 0 6 -5 10 -11 10 -5 0
-7 -4 -4 -10z"/>
<path d="M1537 5213 c-10 -9 -9 -23 1 -23 5 0 9 7 9 15 0 17 -1 18 -10 8z"/>
<path d="M1320 5200 c8 -5 20 -10 25 -10 6 0 3 5 -5 10 -8 5 -19 10 -25 10 -5
0 -3 -5 5 -10z"/>
<path d="M886 5178 c3 -5 10 -6 15 -3 13 9 11 12 -6 12 -8 0 -12 -4 -9 -9z"/>
<path d="M1270 5166 c0 -2 7 -7 16 -10 8 -3 12 -2 9 4 -6 10 -25 14 -25 6z"/>
<path d="M936 5138 c3 -5 10 -6 15 -3 13 9 11 12 -6 12 -8 0 -12 -4 -9 -9z"/>
<path d="M1339 5148 c-5 -18 -6 -38 -1 -34 7 8 12 36 6 36 -2 0 -4 -1 -5 -2z"/>
<path d="M1395 5140 c-3 -5 -1 -10 4 -10 6 0 11 5 11 10 0 6 -2 10 -4 10 -3 0
-8 -4 -11 -10z"/>
<path d="M2006 4978 c3 -5 10 -6 15 -3 13 9 11 12 -6 12 -8 0 -12 -4 -9 -9z"/>
<path d="M1581 4974 c-1 -6 5 -17 12 -23 10 -8 14 -7 14 4 0 8 -4 12 -8 9 -4
-2 -10 2 -12 8 -4 8 -6 9 -6 2z"/>
<path d="M1954 4948 l-19 -23 23 19 c21 18 27 26 19 26 -2 0 -12 -10 -23 -22z"/>
<path d="M5329 4938 c-179 -45 -305 -187 -314 -355 -6 -106 112 -178 202 -123
38 23 62 57 69 96 12 73 47 113 116 132 96 27 188 -27 208 -122 12 -58 32 -86
78 -110 85 -44 179 8 195 109 6 40 -18 129 -48 181 -96 163 -306 243 -506 192z"/>
<path d="M1575 4941 c6 -11 4 -13 -9 -8 -10 4 -15 3 -11 -4 4 -5 1 -18 -7 -27
-12 -15 -11 -16 4 -4 9 8 21 11 26 8 11 -7 9 31 -3 41 -4 5 -4 2 0 -6z"/>
<path d="M3994 4934 c-170 -34 -313 -175 -331 -324 -7 -64 1 -92 37 -128 74
-74 210 -31 227 71 3 21 15 52 27 70 77 114 263 86 296 -45 6 -24 16 -54 23
-66 29 -59 117 -86 176 -55 69 36 91 99 67 186 -57 209 -290 339 -522 291z"/>
<path d="M1497 4929 c7 -7 15 -10 18 -7 3 3 -2 9 -12 12 -14 6 -15 5 -6 -5z"/>
<path d="M1624 4915 c-18 -15 -18 -15 0 -8 12 4 17 3 13 -4 -3 -5 0 -10 8 -10
10 0 12 4 5 12 -5 7 -7 15 -3 18 12 13 -3 7 -23 -8z"/>
<path d="M1477 4913 c-10 -9 -9 -23 1 -23 5 0 9 7 9 15 0 17 -1 18 -10 8z"/>
<path d="M1270 4891 c0 -5 7 -12 16 -15 14 -5 15 -4 4 9 -14 17 -20 19 -20 6z"/>
<path d="M1314 4880 c0 -13 4 -16 10 -10 7 7 7 13 0 20 -6 6 -10 3 -10 -10z"/>
<path d="M1715 4894 c2 -4 0 -14 -5 -23 -6 -13 -4 -17 10 -17 15 0 17 3 7 15
-7 8 -10 16 -9 18 2 3 1 7 -2 9 -3 2 -4 1 -1 -2z"/>
<path d="M1794 4860 c3 -55 12 -59 12 -4 0 24 -3 44 -7 44 -4 0 -6 -18 -5 -40z"/>
<path d="M1889 4884 c-11 -14 -24 -52 -14 -42 2 1 3 6 2 9 -1 4 7 16 17 28 11
12 17 21 14 21 -3 0 -12 -7 -19 -16z"/>
<path d="M1230 4876 c7 -7 13 -7 20 0 6 6 3 10 -10 10 -13 0 -16 -4 -10 -10z"/>
<path d="M1566 4878 c3 -5 10 -6 15 -3 13 9 11 12 -6 12 -8 0 -12 -4 -9 -9z"/>
<path d="M1676 4878 c3 -5 10 -6 15 -3 13 9 11 12 -6 12 -8 0 -12 -4 -9 -9z"/>
<path d="M1995 4871 c-3 -5 -2 -12 3 -15 5 -3 9 1 9 9 0 17 -3 19 -12 6z"/>
<path d="M1667 4859 c7 -7 15 -10 18 -7 3 3 -2 9 -12 12 -14 6 -15 5 -6 -5z"/>
<path d="M1910 4860 c0 -5 5 -10 11 -10 5 0 7 5 4 10 -3 6 -8 10 -11 10 -2 0
-4 -4 -4 -10z"/>
<path d="M1338 4848 c12 -16 35 -18 48 -6 3 4 -2 5 -13 4 -10 -2 -25 2 -33 8
-13 9 -13 9 -2 -6z"/>
<path d="M1575 4851 c-3 -5 -2 -12 3 -15 5 -3 9 1 9 9 0 17 -3 19 -12 6z"/>
<path d="M306 4842 c-3 -5 1 -9 9 -9 8 0 12 4 9 9 -3 4 -7 8 -9 8 -2 0 -6 -4
-9 -8z"/>
<path d="M1530 4846 c0 -2 7 -7 16 -10 8 -3 12 -2 9 4 -6 10 -25 14 -25 6z"/>
<path d="M1890 4819 c0 -5 5 -7 10 -4 6 3 10 8 10 11 0 2 -4 4 -10 4 -5 0 -10
-5 -10 -11z"/>
<path d="M906 4798 c3 -5 10 -6 15 -3 13 9 11 12 -6 12 -8 0 -12 -4 -9 -9z"/>
<path d="M950 4801 c0 -6 4 -13 10 -16 6 -3 7 1 4 9 -7 18 -14 21 -14 7z"/>
<path d="M1307 4779 c7 -7 15 -10 18 -7 3 3 -2 9 -12 12 -14 6 -15 5 -6 -5z"/>
<path d="M1410 4780 c0 -5 5 -10 11 -10 5 0 7 5 4 10 -3 6 -8 10 -11 10 -2 0
-4 -4 -4 -10z"/>
<path d="M1655 4781 c-3 -5 -2 -12 3 -15 5 -3 9 1 9 9 0 17 -3 19 -12 6z"/>
<path d="M1893 4769 c-2 -23 3 -25 10 -4 4 8 3 16 -1 19 -4 3 -9 -4 -9 -15z"/>
<path d="M1253 4755 c0 -8 4 -12 9 -9 4 3 8 9 8 15 0 5 -4 9 -8 9 -5 0 -9 -7
-9 -15z"/>
<path d="M1375 4760 c-3 -5 -1 -10 4 -10 6 0 11 5 11 10 0 6 -2 10 -4 10 -3 0
-8 -4 -11 -10z"/>
<path d="M1696 4762 c-3 -5 1 -9 9 -9 8 0 12 4 9 9 -3 4 -7 8 -9 8 -2 0 -6 -4
-9 -8z"/>
<path d="M1946 4762 c-3 -5 1 -9 9 -9 8 0 12 4 9 9 -3 4 -7 8 -9 8 -2 0 -6 -4
-9 -8z"/>
<path d="M1835 4741 c-3 -5 -2 -12 3 -15 5 -3 9 1 9 9 0 17 -3 19 -12 6z"/>
<path d="M1795 4731 c-3 -5 -2 -12 3 -15 5 -3 9 1 9 9 0 17 -3 19 -12 6z"/>
<path d="M795 4680 c3 -5 8 -10 11 -10 2 0 4 5 4 10 0 6 -5 10 -11 10 -5 0 -7
-4 -4 -10z"/>
<path d="M875 4681 c-3 -5 -2 -12 3 -15 5 -3 9 1 9 9 0 17 -3 19 -12 6z"/>
<path d="M920 4680 c-9 -6 -10 -10 -3 -10 6 0 15 5 18 10 8 12 4 12 -15 0z"/>
<path d="M1265 4679 c-3 -4 2 -6 10 -5 21 3 28 13 10 13 -9 0 -18 -4 -20 -8z"/>
<path d="M1320 4640 c-8 -5 -10 -10 -5 -10 6 0 17 5 25 10 8 5 11 10 5 10 -5
0 -17 -5 -25 -10z"/>
<path d="M870 4625 c0 -7 30 -13 34 -7 3 4 -4 9 -15 9 -10 1 -19 0 -19 -2z"/>
<path d="M910 4579 c0 -5 5 -7 10 -4 6 3 10 8 10 11 0 2 -4 4 -10 4 -5 0 -10
-5 -10 -11z"/>
<path d="M1315 4580 c-3 -5 -1 -10 4 -10 6 0 11 5 11 10 0 6 -2 10 -4 10 -3 0
-8 -4 -11 -10z"/>
<path d="M1270 4559 c0 -5 5 -7 10 -4 6 3 10 8 10 11 0 2 -4 4 -10 4 -5 0 -10
-5 -10 -11z"/>
<path d="M949 4523 c-13 -16 -12 -17 4 -4 9 7 17 15 17 17 0 8 -8 3 -21 -13z"/>
<path d="M836 4513 c-6 -14 -5 -15 5 -6 7 7 10 15 7 18 -3 3 -9 -2 -12 -12z"/>
<path d="M1256 4513 c-6 -14 -5 -15 5 -6 7 7 10 15 7 18 -3 3 -9 -2 -12 -12z"/>
<path d="M886 4498 c3 -5 10 -6 15 -3 13 9 11 12 -6 12 -8 0 -12 -4 -9 -9z"/>
<path d="M956 4502 c-3 -5 1 -9 9 -9 8 0 12 4 9 9 -3 4 -7 8 -9 8 -2 0 -6 -4
-9 -8z"/>
<path d="M1293 4471 c0 -11 5 -18 9 -15 4 3 5 11 1 19 -7 21 -12 19 -10 -4z"/>
<path d="M1229 4463 c-13 -16 -12 -17 4 -4 9 7 17 15 17 17 0 8 -8 3 -21 -13z"/>
<path d="M476 4433 c-6 -14 -5 -15 5 -6 7 7 10 15 7 18 -3 3 -9 -2 -12 -12z"/>
<path d="M1050 4442 c0 -4 10 -9 22 -9 18 -2 20 0 8 7 -18 12 -30 13 -30 2z"/>
<path d="M1236 4433 c-6 -14 -5 -15 5 -6 7 7 10 15 7 18 -3 3 -9 -2 -12 -12z"/>
<path d="M1270 4441 c0 -6 4 -13 10 -16 6 -3 7 1 4 9 -7 18 -14 21 -14 7z"/>
<path d="M1108 4411 c3 -8 1 -12 -5 -8 -5 3 -10 0 -10 -8 0 -11 4 -12 14 -4 9
8 17 8 26 0 10 -8 14 -7 14 4 0 7 -3 14 -6 13 -19 -2 -24 4 -11 12 12 7 10 9
-7 8 -14 -2 -19 -7 -15 -17z"/>
<path d="M990 4400 c0 -5 5 -10 11 -10 5 0 7 5 4 10 -3 6 -8 10 -11 10 -2 0
-4 -4 -4 -10z"/>
<path d="M1236 4393 c-6 -14 -5 -15 5 -6 7 7 10 15 7 18 -3 3 -9 -2 -12 -12z"/>
<path d="M980 4360 c-8 -5 -10 -10 -5 -10 6 0 17 5 25 10 8 5 11 10 5 10 -5 0
-17 -5 -25 -10z"/>
<path d="M1110 4356 c7 -7 13 -7 20 0 6 6 3 10 -10 10 -13 0 -16 -4 -10 -10z"/>
<path d="M1106 4322 c-2 -4 4 -8 14 -8 10 0 16 4 14 8 -3 4 -9 8 -14 8 -5 0
-11 -4 -14 -8z"/>
<path d="M1275 4320 c-3 -5 -1 -10 4 -10 6 0 11 5 11 10 0 6 -2 10 -4 10 -3 0
-8 -4 -11 -10z"/>
<path d="M1186 4238 c3 -5 10 -6 15 -3 13 9 11 12 -6 12 -8 0 -12 -4 -9 -9z"/>
<path d="M4040 4112 c-88 -47 -91 -181 -7 -324 84 -144 262 -239 449 -239 128
0 206 25 320 102 l56 38 46 -35 c92 -70 208 -107 334 -105 85 0 102 3 176 27
187 60 321 226 328 406 4 85 -56 148 -139 148 -81 0 -126 -45 -139 -136 -8
-59 -23 -90 -61 -126 -90 -86 -238 -90 -340 -9 -36 28 -73 104 -73 147 0 67
-80 131 -152 121 -73 -10 -110 -51 -123 -137 -9 -60 -27 -92 -75 -133 -141
-121 -372 -42 -396 136 -16 113 -110 168 -204 119z"/>
</g>
</svg>
