<svg id="Icon" xmlns="http://www.w3.org/2000/svg" viewBox="0 0 288 288"><defs><style>.cls-1{fill:none;}.cls-2{fill:#d3eef4;}.cls-3{fill:#bde6ee;}.cls-4{fill:#f80000;}.cls-5{fill:#d90000;}.cls-6{fill:#ba0000;}.cls-7{fill:#9b0000;}.cls-8{fill:#00758f;}.cls-9{fill:#fff;}</style></defs><title>OBIC_Campaign_Oracle-Autonomous-Database_detailed_rgb</title><rect class="cls-1" width="288" height="288"/><path class="cls-2" d="M87,174.74a39,39,0,0,1,0-78c.35,0,.7,0,1,0a39,39,0,0,1,70.1-13.1,34.48,34.48,0,0,1,44.27,22.22c1-.09,2-.15,3.08-.15a34.5,34.5,0,1,1-18.78,63.45l-7.51,5.55Z"/><path class="cls-3" d="M240,140.24a34.23,34.23,0,0,0-.59-6.37c0-.2-.07-.39-.11-.58s-.1-.48-.16-.72-.15-.63-.23-.95-.11-.42-.17-.64a34.51,34.51,0,0,0-33.24-25.24c-1,0-2.07.05-3.09.14A34.49,34.49,0,0,0,149,88.5a33,33,0,0,0-52.48,20.43,34.13,34.13,0,0,0-3.52-.19,33,33,0,1,0,0,66h86.21l7.51-5.55A34.51,34.51,0,0,0,240,140.24Z"/><path class="cls-4" d="M144,145c-23.59,0-42.72-3.3-42.72-7.36v79.54c0,4.07,19.13,7.37,42.72,7.37s42.72-3.3,42.72-7.37V137.59C186.75,141.65,167.63,145,144,145Z"/><path class="cls-5" d="M101.31,137.59v79.54c0,4.07,19.13,7.37,42.72,7.37V145C120.44,145,101.31,141.65,101.31,137.59Z"/><path class="cls-5" d="M180.86,141.32v79.55c3.74-1.1,5.89-2.37,5.89-3.74V137.59C186.75,139,184.61,140.23,180.86,141.32Z"/><ellipse class="cls-6" cx="144.03" cy="137.59" rx="42.72" ry="7.37"/><path class="cls-7" d="M101.31,187.67c0,4.07,19.13,7.37,42.72,7.37s42.72-3.3,42.72-7.37v5.89c0,4.07-19.12,7.37-42.72,7.37s-42.72-3.3-42.72-7.37Z"/><path class="cls-7" d="M186.75,161.16c0,4.06-19.12,7.36-42.72,7.36s-42.72-3.3-42.72-7.36v5.89c0,4.07,19.13,7.36,42.72,7.36s42.72-3.29,42.72-7.36Z"/><path class="cls-8" d="M171,140.24a34.5,34.5,0,1,0,34.5-34.5A34.5,34.5,0,0,0,171,140.24Z"/><path class="cls-9" d="M216.22,150.55l-7.92-21.23a.88.88,0,0,0-.83-.58h-3a.89.89,0,0,0-.82.55l-8.82,21.23a.88.88,0,0,0,.82,1.22h3.92a.89.89,0,0,0,.84-.58l1.23-3.46h7.59l1.15,3.44a.88.88,0,0,0,.84.6h4.19A.89.89,0,0,0,216.22,150.55Zm-13.06-7.09,2.36-6.63h0l2.2,6.63Zm24.63,5.8-8.88-8.88a.91.91,0,0,1,0-1.29l1.19-1.19a.93.93,0,0,1,1.29,0l5,5,.07-1.75c0-.29,0-.59,0-.89a21,21,0,0,0-21-21,21.07,21.07,0,0,0-16.67,8.26l-2.5-2.5A24.47,24.47,0,0,1,230,140.24v1.86l4.2-4.2a.92.92,0,0,1,1.29,0l1.19,1.19a.91.91,0,0,1,0,1.29Zm-53.45-7.86a.91.91,0,0,1,0-1.29l8.87-8.88,8.88,8.88a.91.91,0,0,1,0,1.29l-1.19,1.19a.91.91,0,0,1-1.29,0l-5-5-.07,1.75c0,.29,0,.59,0,.88a21,21,0,0,0,21,21A21,21,0,0,0,222.17,153l2.5,2.51A24.47,24.47,0,0,1,181,140.25v-1.86l-4.2,4.2a.91.91,0,0,1-1.29,0Z"/></svg>