<?xml version="1.0" standalone="no"?><!DOCTYPE svg PUBLIC "-//W3C//DTD SVG 1.1//EN" "http://www.w3.org/Graphics/SVG/1.1/DTD/svg11.dtd"><svg class="icon" height="512" viewBox="0 0 1024 1024" version="1.1" xmlns="http://www.w3.org/2000/svg"><path d="M162.889143 552.111543c1.397029 28.8 30.1696 15.4752 43.201828 6.471314 12.370286-8.5504 15.9872-1.442743 17.073372-18.3168 0.711314-11.086629 1.989486-22.178743 1.360457-33.309257-18.706286-1.695086-39.0528 2.761143-54.389029 13.9008-7.901257 5.743543-22.710857 24.062171-7.246628 31.253943" fill="#F6D2A2" /><path d="M162.889143 552.111543c4.187429-1.5616 8.625371-2.664229 11.466971-6.4512" fill="#C6B198" /><path d="M229.381486 208.994743c-110.257371-31.005257-28.271543-171.274971 60.267885-113.578057l-60.267885 113.578057zM719.252114 84.891429c87.275886-61.2992 166.136686 77.002971 64.713143 111.800685l-64.713143-111.800685z" fill="#6AD7E5" /><path d="M738.024229 906.578286c22.167771 13.714286 62.687086 55.191771 29.434514 75.3024-31.954286 29.257143-49.835886-32.113371-77.882514-40.6144 12.079543-16.405943 27.386514-31.36 48.448-34.688z" fill="#F6D2A2" /><path d="M341.988571 953.448229c-26.018743 4.026514-40.663771 27.499886-62.354285 39.422171-20.4416 12.189257-28.260571-3.900343-30.100115-7.168-3.203657-1.461029-2.934857 1.360457-7.881142-3.618743-18.947657-29.904457 19.743086-51.765029 39.890285-66.618514 28.063086-5.674057 45.648457 18.655086 60.445257 37.983086z" fill="#F6D2A2" /><path d="M233.982171 170.254629c-14.546286-7.694629-25.217829-18.144914-16.32-34.9696 8.237714-15.575771 23.541029-13.884343 38.089143-6.189715l-21.769143 41.159315zM760.981943 155.626057c14.546286-7.694629 25.217829-18.144914 16.32-34.9696-8.237714-15.575771-23.541029-13.884343-38.089143-6.189714l21.769143 41.159314z" fill="" /><path d="M861.112686 548.4544c-1.397029 28.8-30.1696 15.4752-43.201829 6.471314-12.372114-8.5504-15.983543-1.442743-17.073371-18.3168-0.713143-11.086629-1.989486-22.178743-1.360457-33.311085 18.704457-1.695086 39.050971 2.761143 54.389028 13.902628 7.8976 5.743543 22.710857 24.062171 7.246629 31.253943" fill="#F6D2A2" /><path d="M861.112686 548.4544c-4.187429-1.5616-8.625371-2.664229-11.466972-6.4512" fill="#C6B198" /><path d="M500.9536 26.631314c110.379886 0 213.856914 15.787886 267.797943 121.837715 48.418743 118.868114 31.200914 247.047314 38.586514 372.675657 6.341486 107.871086 20.397714 232.495543-29.6448 332.458057-52.640914 105.170286-184.190171 131.624229-292.571428 127.749486-85.130971-3.0464-187.968-30.818743-236.011886-108.597029-56.369371-91.245714-29.681371-226.923886-25.589029-328.453486 4.849371-120.2688-32.574171-240.901486 6.933943-358.586514 40.987429-122.080914 151.528229-149.6704 270.498743-159.083886" fill="#6AD7E5" /><path d="M520.437029 174.813257c19.818057 115.205486 208.131657 84.745143 181.083428-31.445943-24.250514-104.192-187.668114-75.351771-181.083428 31.445943" fill="#FFFFFF" /><path d="M295.403886 193.4464c25.685943 100.297143 186.2656 74.618514 180.214857-25.989486-7.255771-120.493714-204.772571-97.243429-180.214857 25.989486" fill="#FFFFFF" /><path d="M543.157029 313.056914c0.087771 14.977829 3.402971 31.793371 0.572342 47.727543-3.8272 7.226514-11.324343 7.990857-17.790171 10.911086-8.941714-1.402514-16.458971-7.274057-20.0448-15.637943-2.294857-18.186971 0.855771-35.796114 1.435429-53.9904l35.8272 10.989714z" fill="#FFFFFF" /><path d="M312.577829 177.088a29.370514 27.115886 90 1 0 54.231771 0 29.370514 27.115886 90 1 0-54.231771 0Z" fill="" /><path d="M345.634743 183.716571a7.464229 6.392686 90 1 0 12.785371 0 7.464229 6.392686 90 1 0-12.785371 0Z" fill="#FFFFFF" /><path d="M540.224 169.773714a29.370514 26.664229 90 1 0 53.328457 0 29.370514 26.664229 90 1 0-53.328457 0Z" fill="" /><path d="M572.730514 176.402286a7.464229 6.286629 90 1 0 12.573257 0 7.464229 6.286629 90 1 0-12.573257 0Z" fill="#FFFFFF" /><path d="M465.669486 311.425829c-11.830857 28.672 6.597486 86.006857 38.698057 43.717485-2.294857-18.186971 0.8576-35.796114 1.435428-53.9904l-40.133485 10.272915z" fill="#FFFFFF" /><path d="M469.717943 256.208457c-22.050743 1.879771-40.074971 28.097829-28.609829 48.839314 15.182629 27.472457 49.071543-2.430171 70.178743 0.3712 24.2944 0.497371 44.194743 25.685943 63.7056 4.553143 21.699657-23.504457-9.340343-46.396343-33.603657-56.630857l-71.670857 2.8672z" fill="#F6D2A2" /><path d="M466.942171 255.060114c-1.632914-38.200686 71.202743-42.976914 79.802515-11.000685 8.579657 31.901257-76.216686 39.310629-79.802515 11.000685-2.859886-22.606629 0 0 0 0z" fill="" /></svg>