<svg xmlns="http://www.w3.org/2000/svg" width="241" height="237.803" viewBox="0 0 241 237.803">
  <g id="pet-grooming" transform="translate(0 -3.24)">
    <path id="Path_276" data-name="Path 276" d="M343.616,128.446a4.194,4.194,0,0,0-4.194,4.194v59.892a2.5,2.5,0,0,1-2.5,2.5h-115.2a2.5,2.5,0,0,1-2.5-2.5V132.64a4.194,4.194,0,0,0-8.388,0v59.892a10.9,10.9,0,0,0,10.885,10.886h53.408v12.365h-1.468a14.506,14.506,0,0,0-14.489,14.489v59.711a14.506,14.506,0,0,0,14.489,14.489h11.325a14.506,14.506,0,0,0,14.489-14.489V230.272a14.505,14.505,0,0,0-14.489-14.489h-1.469V203.418h53.408a10.9,10.9,0,0,0,10.885-10.886V132.64A4.194,4.194,0,0,0,343.616,128.446Zm-52.53,101.826v59.711a6.108,6.108,0,0,1-6.1,6.1H273.66a6.109,6.109,0,0,1-6.1-6.1V230.272a6.108,6.108,0,0,1,6.1-6.1h11.325A6.108,6.108,0,0,1,291.087,230.272Z" transform="translate(-106.81 -63.43)"/>
    <path id="Path_277" data-name="Path 277" d="M290.025,173.666a4.194,4.194,0,0,0,4.194-4.194v-34.8a4.194,4.194,0,0,0-8.388,0v34.8A4.194,4.194,0,0,0,290.025,173.666Z" transform="translate(-144.803 -64.46)"/>
    <path id="Path_278" data-name="Path 278" d="M253.1,173.666a4.194,4.194,0,0,0,4.194-4.194v-34.8a4.194,4.194,0,0,0-8.388,0v34.8A4.194,4.194,0,0,0,253.1,173.666Z" transform="translate(-126.098 -64.46)"/>
    <path id="Path_279" data-name="Path 279" d="M363.866,173.666a4.194,4.194,0,0,0,4.194-4.194v-34.8a4.194,4.194,0,0,0-8.388,0v34.8A4.194,4.194,0,0,0,363.866,173.666Z" transform="translate(-182.211 -64.46)"/>
    <path id="Path_280" data-name="Path 280" d="M326.946,173.666a4.194,4.194,0,0,0,4.194-4.194v-34.8a4.194,4.194,0,1,0-8.388,0v34.8A4.194,4.194,0,0,0,326.946,173.666Z" transform="translate(-163.507 -64.46)"/>
    <path id="Path_281" data-name="Path 281" d="M437.709,173.666a4.194,4.194,0,0,0,4.194-4.194v-34.8a4.194,4.194,0,0,0-8.388,0v34.8A4.194,4.194,0,0,0,437.709,173.666Z" transform="translate(-219.62 -64.46)"/>
    <path id="Path_282" data-name="Path 282" d="M400.787,173.666a4.194,4.194,0,0,0,4.194-4.194v-34.8a4.194,4.194,0,0,0-8.388,0v34.8A4.194,4.194,0,0,0,400.787,173.666Z" transform="translate(-200.915 -64.46)"/>
    <path id="Path_283" data-name="Path 283" d="M114.252,171.951l-42.4-80.61L84.444,63.91c.286.008.571.017.856.017h0A30.349,30.349,0,1,0,57.81,20.7,30.318,30.318,0,0,0,30.382,3.24a30.639,30.639,0,0,0-4.738.371,30.341,30.341,0,0,0,4.673,60.315c.284,0,.569-.009.854-.017L43.747,91.382,1.368,171.95c-.059.112-.113.228-.162.346A15.69,15.69,0,0,0,9.69,192.8q.146.061.3.11l9.675,3.182a4.189,4.189,0,0,0,5.122-2.234l32.664-71.143,33.407,71.176a4.19,4.19,0,0,0,5.107,2.2l9.674-3.182c.1-.033.2-.07.3-.11a15.689,15.689,0,0,0,8.484-20.5C114.365,172.179,114.31,172.064,114.252,171.951ZM63.584,30.179A21.828,21.828,0,0,1,85.237,11.627a22.2,22.2,0,0,1,3.438.27A21.954,21.954,0,0,1,85.3,55.54a22.253,22.253,0,0,1-3.434-.269A21.979,21.979,0,0,1,63.584,30.179ZM57.809,64.65l-5.4-10.267a30.6,30.6,0,0,0,5.4-7.923,30.6,30.6,0,0,0,5.4,7.923ZM8.663,36.987A21.951,21.951,0,0,1,26.945,11.9a22.255,22.255,0,0,1,3.437-.27A21.954,21.954,0,0,1,33.754,55.27a22.236,22.236,0,0,1-3.436.269A21.829,21.829,0,0,1,8.663,36.987Zm31.06,25.45a30.053,30.053,0,0,0,6.016-2.718L53.07,73.658,48.68,82.005Zm-21,124.516L12.773,185a7.3,7.3,0,0,1-3.883-9.33L69.88,59.72a30.09,30.09,0,0,0,6.012,2.716Zm87.946-5.856a7.252,7.252,0,0,1-3.822,3.9l-5.979,1.966-34.84-74.228,5.406-11.773,39.3,74.706A7.249,7.249,0,0,1,106.668,181.1Z" transform="translate(0)"/>
  </g>
</svg>
