<svg id="cat-feeders" xmlns="http://www.w3.org/2000/svg" width="219.586" height="219.586" viewBox="0 0 219.586 219.586">
  <path id="Path_32" data-name="Path 32" d="M205.909,82.7c2.6-1.551,3.052-3.156,3.052-4.782V63.751c0-4.629-5.472-5.854-21.3-8.73l-.071-.016a17.629,17.629,0,0,0-10.622-14.573,17.74,17.74,0,0,0-15.519-15.519,17.5,17.5,0,0,0-17.691-10.679A17.806,17.806,0,0,0,127.5,3.542,17.067,17.067,0,0,0,121.608,4.6a17.483,17.483,0,0,0-23.63,0,17.067,17.067,0,0,0-5.894-1.055,17.8,17.8,0,0,0-16.252,10.7A17.474,17.474,0,0,0,58.141,24.916,17.741,17.741,0,0,0,42.622,40.436,17.63,17.63,0,0,0,32,55.014l-.067.014C16.1,57.893,10.625,59.121,10.625,63.751V77.918c0,1.626.457,3.23,3.045,4.778L.138,130.073l-.138.97c0,2.461,0,5.008,20.581,10.189a375.378,375.378,0,0,0,39.235,7.391,53.125,53.125,0,1,0,99.953,0,374.552,374.552,0,0,0,39.239-7.391c20.578-5.178,20.578-7.725,20.578-10.186Zm2.539,34.637c-2.653.949-6.371,2.03-10.926,3.163L188.49,87.377a105.561,105.561,0,0,0,10.784-2.146Zm-61.108,11.575a53.04,53.04,0,0,0-75.092,0c-9.236-.974-17.939-2.177-25.809-3.485l5.937-35.609c16.942,1.449,37.3,2.267,57.418,2.267s40.475-.818,57.421-2.271l5.937,35.609C165.277,126.734,156.575,127.937,147.339,128.911ZM17.709,76.859V70.3c4.735,1.579,12.569,3.085,25.553,4.488a656.022,656.022,0,0,0,66.532,3.134,656.022,656.022,0,0,0,66.532-3.134c12.984-1.4,20.818-2.912,25.553-4.488v6.563C195.984,80.372,159.647,85,109.793,85S23.6,80.372,17.709,76.859ZM43.261,88.951c.655.069,1.371.13,2.041.2L39.459,124.2c-3.761-.693-7.258-1.4-10.49-2.1l9.2-33.738C39.777,88.56,41.463,88.755,43.261,88.951ZM180.127,124.2l-5.843-35.052c.669-.067,1.385-.131,2.041-.2,1.8-.2,3.485-.391,5.089-.588l9.2,33.738Q185.771,123.157,180.127,124.2Zm5.15-57.669a25.005,25.005,0,0,0,1.662-4.446c3.191.581,7.405,1.354,10.738,2.125A114.736,114.736,0,0,1,185.277,66.535ZM46.967,46.414l2.755-.7-.088-2.845c-.01-.206-.033-.393-.05-.368a10.609,10.609,0,0,1,10.4-10.636l3.438.176.712-2.783a10.336,10.336,0,0,1,13.136-7.545l3.645,1.034L81.7,19.04a10.658,10.658,0,0,1,15.421-7.073l2.6,1.413,1.857-2.3a10.455,10.455,0,0,1,16.446,0l1.857,2.3,2.6-1.413A10.66,10.66,0,0,1,137.89,19.04l.785,3.708,3.645-1.034a10.34,10.34,0,0,1,13.14,7.545l.712,2.783,2.871-.119c.189-.007.377-.029.334-.047a10.606,10.606,0,0,1,10.635,10.381l-.149,3.46,2.755.7a10.6,10.6,0,0,1,8.009,10.25A17.326,17.326,0,0,1,175.96,67.7a632.434,632.434,0,0,1-66.167,3.13,630.781,630.781,0,0,1-66.269-3.146,17.39,17.39,0,0,1-4.565-11.021A10.6,10.6,0,0,1,46.967,46.414ZM32.633,62.094a25.382,25.382,0,0,0,1.629,4.438,115.263,115.263,0,0,1-12.356-2.317C25.238,63.446,29.442,62.673,32.633,62.094ZM31.1,87.377,22.065,120.5c-4.555-1.129-8.27-2.21-10.926-3.16l9.172-32.105A105.7,105.7,0,0,0,31.1,87.377ZM7.583,129.789l1.612-5.646c10.622,3.7,32.6,8.384,57.563,11.293a53.271,53.271,0,0,0-4.014,6.435C34.255,138.1,13.306,132.466,7.583,129.789ZM109.793,212.5a46.042,46.042,0,1,1,46.042-46.042A46.1,46.1,0,0,1,109.793,212.5Zm47.049-70.635a52.536,52.536,0,0,0-4.014-6.431c24.967-2.909,46.941-7.59,57.563-11.293L212,129.789C206.28,132.47,185.328,138.1,156.842,141.867Zm0,0"/>
  <path id="Path_33" data-name="Path 33" d="M176,88h7.083v7.083H176Zm0,0" transform="translate(-98.082 -49.041)"/>
  <path id="Path_34" data-name="Path 34" d="M280,40h7.083v7.083H280Zm0,0" transform="translate(-156.04 -22.291)"/>
  <path id="Path_35" data-name="Path 35" d="M240,120h7.083v7.083H240Zm0,0" transform="translate(-133.749 -66.874)"/>
  <path id="Path_36" data-name="Path 36" d="M304,96h7.083v7.083H304Zm0,0" transform="translate(-169.415 -53.499)"/>
  <path id="Path_37" data-name="Path 37" d="M210.625,50.625V43.542A3.546,3.546,0,0,1,207.083,40H200A10.639,10.639,0,0,0,210.625,50.625Zm0,0" transform="translate(-111.457 -22.291)"/>
  <path id="Path_38" data-name="Path 38" d="M362.625,120h-7.083A3.546,3.546,0,0,1,352,123.542v7.083A10.639,10.639,0,0,0,362.625,120Zm0,0" transform="translate(-196.165 -66.874)"/>
  <path id="Path_39" data-name="Path 39" d="M130.625,130.625v-7.083A3.546,3.546,0,0,1,127.083,120H120A10.639,10.639,0,0,0,130.625,130.625Zm0,0" transform="translate(-66.874 -66.874)"/>
  <path id="Path_40" data-name="Path 40" d="M234.625,325.25A10.625,10.625,0,1,0,224,314.625,10.639,10.639,0,0,0,234.625,325.25Zm0-14.167a3.542,3.542,0,1,1-3.542,3.542A3.546,3.546,0,0,1,234.625,311.083Zm0,0" transform="translate(-124.832 -169.415)"/>
  <path id="Path_41" data-name="Path 41" d="M191.226,343.234a10.636,10.636,0,1,0-7.511,3.106A10.542,10.542,0,0,0,191.226,343.234Zm-10.015-5.012a3.543,3.543,0,1,1,5.012,0A3.557,3.557,0,0,1,181.211,338.222Zm0,0" transform="translate(-96.461 -181.173)"/>
  <path id="Path_42" data-name="Path 42" d="M278.025,328.208a10.623,10.623,0,1,0,15.026,0A10.541,10.541,0,0,0,278.025,328.208Zm10.015,10.015a3.545,3.545,0,0,1-5.012,0,3.542,3.542,0,1,1,6.054-2.5A3.543,3.543,0,0,1,288.039,338.222Zm0,0" transform="translate(-153.204 -181.173)"/>
  <path id="Path_43" data-name="Path 43" d="M216.792,368c-13.9,0-24.792,7.777-24.792,17.709s10.891,17.709,24.792,17.709,24.792-7.777,24.792-17.709S230.692,368,216.792,368Zm0,28.334c-9.6,0-17.709-4.866-17.709-10.625s8.111-10.625,17.709-10.625S234.5,379.95,234.5,385.709,226.39,396.334,216.792,396.334Zm0,0" transform="translate(-106.999 -205.081)"/>
</svg>
