<svg xmlns="http://www.w3.org/2000/svg" xmlns:xlink="http://www.w3.org/1999/xlink" viewBox="0 0 260 260">
  <defs>
    <filter  filterUnits="userSpaceOnUse" height="200" id="micro_symbol" name="micro_symbol" width="200" x="-10" y="-60">
        <feOffset  dy="3"></feOffset>
        <feGaussianBlur  result="blur-2" stdDeviation="3"></feGaussianBlur>
        <feFlood  flood-opacity="0.28"></feFlood>
        <feComposite  in="blur-2" operator="in"></feComposite>
        <feComposite  in="SourceGraphic" operator="over"></feComposite>
    </filter>
    <filter  filterUnits="userSpaceOnUse" height="200" id="Bubble" name="Bubble" width="200" x="-40" y="-50">
        <feOffset  dx="1" dy="3" input="SourceAlpha"></feOffset>
        <feGaussianBlur  result="blur" stdDeviation="3"></feGaussianBlur>
        <feFlood  flood-opacity="0.5"></feFlood>
        <feComposite  in="blur" operator="in"></feComposite>
        <feComposite  in="SourceGraphic" operator="over"></feComposite>
    </filter>
  </defs>
    <path id="Body" class="catBodyStyle" d="M243.5,123.7c4.3-10.6,7.7-26.2-0.4-40.5c-3.1-5.6-4.7-12-4.6-18.4c0.1-17.1,0.4-35,0.6-47
        c0.1-3.7-3.2-6.8-7.4-6.9c-2,0-4,0.7-5.5,2.1l-29.8,27.5c-14.9-3.1-30.4-2.1-44.7,2.9c-8.4-7.4-24.1-19.8-33.2-26.9
        c-2.3-1.8-5.5-2.2-8.2-1c-2.6,1-4.3,3.6-4.3,6.4l2.1,42.8c0.5,9.7-0.3,19.4-2.4,28.9c-3,13.1-4.3,26.6-3.7,40.1
        c-16.2,1.5-31.8,7.4-44.9,17.1c-24.4,17.8-40.2,46.9-47,86.4c-0.2,1.8,1.1,3.5,2.9,3.7c0,0,0.1,0,0.1,0c1.9,0.3,3.7-0.9,4.1-2.7
        c6.5-37.9,21.4-65.6,44.4-82.4c20.6-15,40.4-15.8,44.1-15.8c1.9,0.1,3.5-1.3,3.6-3.2c0-0.1,0-0.2,0-0.3c-1-14,0.2-28,3.4-41.7
        c2.2-10,3.1-20.3,2.6-30.5l-2.1-42.7c0-0.1,0.1-0.3,0.2-0.3c0.1-0.1,0.2-0.1,0.4,0c9.6,7.5,26.8,21.2,34.5,28.1
        c1.1,0.9,2.6,1.2,3.9,0.7c14.1-5.4,29.5-6.4,44.2-3c1.3,0.4,2.7,0.1,3.7-0.8l31.3-28.8c0.1-0.1,0.2-0.1,0.4-0.1
        c0.1,0,0.2,0.1,0.2,0.3c0,0,0,0,0,0c-0.2,12-0.5,29.9-0.6,47c-0.1,7.5,1.8,14.8,5.4,21.4c6.9,12.2,3.8,25.9,0.1,35.3
        c-3.5,8.8-4.1,18.4-1.6,27.5c5.2,19,10.5,56.2-11.9,91c-0.9,1.4-0.5,3.3,0.9,4.2c0.1,0.1,0.2,0.1,0.4,0.2c1.7,0.9,3.8,0.4,4.9-1.2
        l0,0c23.7-36.8,18.2-75.8,12.7-95.8C240,139.6,240.5,131.3,243.5,123.7z" style="stroke: #000;stroke-miterlimit: 10;stroke-width: 6px"/>
    <path id="Left_eye" d="M159.5,90.4c0.3,2,2.1,3.4,4.1,3.1c1.6-0.2,2.9-1.5,3.1-3.1c-0.3-7.2-7.1-12.8-15.2-12.6
        c-7.7,0.2-13.9,5.7-14.2,12.6c0.3,2,2.1,3.4,4.1,3.1c1.6-0.2,2.9-1.5,3.1-3.1c0.2-3.7,3.8-6.5,7.9-6.3
        C156.2,84.3,159.3,87,159.5,90.4z" style="stroke: #000;stroke-miterlimit: 10;stroke-width: 3px"/>
    <path id="Right_eye" d="M202.4,77.4c-8.1,0-14.7,5.8-14.7,13l0,0c0.2,2,2,3.4,4,3.2c1.7-0.2,3-1.5,3.2-3.2l0,0
        c0.2-3.7,3.8-6.5,7.9-6.3c3.8,0.2,6.9,2.9,7.1,6.3c0.2,2,2,3.4,4,3.2c1.7-0.2,3-1.5,3.2-3.2l0,0C217.1,83.2,210.5,77.4,202.4,77.4z"
        style="stroke: #000;stroke-miterlimit: 10;stroke-width: 3px"/>
    <path id="mustache" d="M208.1,108c-1.9-0.1-3.5,1.3-3.6,3.2c0,0,0,0,0,0c0,5.1-4.6,9.2-10.3,9.2s-10.3-4.1-10.3-9.2
        c-0.3-2-2.1-3.4-4.1-3.1c-1.6,0.2-2.9,1.5-3.1,3.1c0,5.1-4.6,9.2-10.3,9.2s-10.3-4.1-10.3-9.2c-0.3-2-2.1-3.4-4.1-3.1
        c-1.6,0.2-2.9,1.5-3.1,3.1c0,8.5,7.8,15.5,17.5,15.6c5.3,0.1,10.4-2.2,14-6.1c5.9,6.8,16.9,8.1,24.6,3c4.2-2.7,6.8-7.4,6.9-12.4
        C211.6,109.3,210,107.9,208.1,108C208.1,108,208.1,108,208.1,108L208.1,108z" style="stroke: #000;stroke-miterlimit: 10;stroke-width: 3px"/>
    <g id="conversation-speech-bubbles-" transform="matrix(0.995, -0.105, 0.105, 0.995, 40, 80)">
      <g transform="matrix(0.8, 0.1, -0.1, 0.99, -6.82, -10.68) scale(1 1)" filter="url(#Bubble)">
        <path id="Bubble-2" data-name="Path 27" d="M11.2-55.8c31-3.1,58,14.2,60.5,38.6c0.9,11.7-3.4,23.3-11.8,31.5
			c1.1,7.6,3.8,17.8,9.9,22.6C59.1,38,47.5,32,40.5,27.6C34,30.3,27.2,32,20.2,32.7c-31,3.1-58.1-14.2-60.5-38.6
			C-42.8-30.3-19.7-52.7,11.2-55.8z" transform="matrix(0.99, -0.1, 0.1, 0.99, 7.9, 9.91)" opacity="0.097"/>
      </g>
    </g>
    <g transform="matrix(1, 0, 0, 1, 14, 72)" filter="url(#micro_symbol)">
      <path id="micro_symbol-2" data-name="micro_symbol" d="M26.9-5.9L26.9-5.9c0.2,3.2,2.9,5.6,6,5.4c0.1,0,0.1,0,0.2,0c2.6,0,5.1-1.3,6.6-3.5
		c0-0.4-0.4-1.2-0.8-1.2c-0.4,0-0.8,1.2-2.7,1.2c-3.1,0-3.1-3.1-3.1-6.6v-24.3c-1.9,0-4.2,0.8-6.2,0.8v24.7c-2.5,3-6.1,5-10,5.4
		C12.2-4,11-7.8,11-12.5v-15.1c0-2.7-0.4-7.3-0.4-7.3c-2.3,0-4.6,0.8-6.6,0.8c0,0,0.8,5.8,0.8,8.1v14.3c0,4.6,0.8,8.5,0.8,11.2
		c0,4.6-1.2,8.1-1.2,12.4c0.1,2.4,1.9,4.5,4.2,5c1.9,0,3.5-1.5,3.5-4.6c0-3.5-2.7-8.9-2.7-13.9c0-0.4,0.4-0.8,1.2-0.8
		c1.2,1.3,2.9,2,4.6,1.9C19.8-0.4,24.1-2.4,26.9-5.9z" transform="translate(19.07 4.74)" style="stroke: #000;stroke-miterlimit: 10;stroke-width: 3px"/>
    </g>
</svg>
